<svg width="48" height="48" xmlns="http://www.w3.org/2000/svg">

 <g>
  <title>background</title>
  <rect fill="none" id="canvas_background" height="402" width="582" y="-1" x="-1"/>
 </g>
 <g>
  <title>Layer 1</title>
  <path fill="#e1dede" id="svg_2" d="m42.785337,41.170087l-38,0c-1.7,0 -3,-1.3 -3,-3l0,-28c0,-1.7 1.3,-3 3,-3l8.5,0c1.4,0 2.6,0.9 2.9,2.3l0.2,1c0.2,0.5 0.6,0.8 1,0.8l25.4,0c1.7,0 3,1.3 3,3l0,24c0,1.6 -1.3,2.9 -3,2.9zm-38,-32c-0.6,0 -1,0.4 -1,1l0,28c0,0.6 0.4,1 1,1l38,0c0.6,0 1,-0.4 1,-1l0,-24c0,-0.6 -0.4,-1 -1,-1l-25.4,0c-1.3,0 -2.5,-0.9 -2.9,-2.2l0,-0.1l-0.2,-1c-0.2,-0.4 -0.5,-0.7 -1,-0.7l-8.5,0z"/>
  <rect id="svg_3" height="27.154841" width="40.678596" y="12.562499" x="3.499705" stroke-opacity="null" stroke-width="null" stroke="null" fill="#e1dede"/>
  <rect id="svg_4" height="5.259238" width="12.557772" y="9.020563" x="3.499705" stroke-opacity="null" stroke-width="null" stroke="null" fill="#e1dede"/>
 </g>
</svg>