<svg width="24" height="24" xmlns="http://www.w3.org/2000/svg">

 <g>
  <title>background</title>
  <rect fill="none" id="canvas_background" height="402" width="582" y="-1" x="-1"/>
 </g>
 <g>
  <title>Layer 1</title>
  <path stroke="null" fill="#e1dede" id="svg_3" d="m17.143466,19.582305c-1.611649,0 -2.887539,-1.249518 -2.954691,-2.827857l-4.9021,-2.433273c-0.537216,0.394585 -1.074433,0.526113 -1.745954,0.526113c-1.611649,0 -2.954691,-1.315282 -2.954691,-2.893621c0,-1.578339 1.343041,-2.893621 2.954691,-2.893621c0.604369,0 1.208737,0.197292 1.745954,0.526113l4.9021,-2.433273c0,-1.578339 1.343041,-2.827857 2.954691,-2.827857c1.611649,0 2.954691,1.315282 2.954691,2.893621c0,1.578339 -1.343041,2.893621 -2.954691,2.893621c-0.604369,0 -1.208737,-0.197292 -1.745954,-0.526113l-4.767796,2.433273l4.834948,2.367508c0.470064,-0.328821 1.074433,-0.526113 1.745954,-0.526113c1.611649,0 2.954691,1.315282 2.954691,2.893621c-0.067152,1.512575 -1.410193,2.827857 -3.021843,2.827857z"/>
 </g>
</svg>