<svg width="24" height="24" xmlns="http://www.w3.org/2000/svg">

 <g>
  <title>background</title>
  <rect fill="none" id="canvas_background" height="402" width="582" y="-1" x="-1"/>
 </g>
 <g>
  <title>Layer 1</title>
  <path stroke="null" fill="#e1dede" id="email" d="m18.443652,4.878351l-12.779969,0c-1.757246,0 -3.194992,1.47263 -3.194992,3.272512l0,8.181279c0,1.799881 1.437747,3.272512 3.194992,3.272512l12.779969,0c1.757246,0 3.194992,-1.47263 3.194992,-3.272512l0,-8.181279c0,-1.799881 -1.437747,-3.272512 -3.194992,-3.272512zm1.277997,4.745142l-6.31011,4.336078c-0.399374,0.245438 -0.878623,0.409064 -1.357872,0.409064s-0.958498,-0.163626 -1.357872,-0.409064l-6.31011,-4.336078c-0.319499,-0.245438 -0.399374,-0.736315 -0.15975,-1.145379c0.239624,-0.327251 0.718873,-0.409064 1.118247,-0.163626l6.31011,4.336078c0.239624,0.163626 0.638998,0.163626 0.878623,0l6.31011,-4.336078c0.399374,-0.245438 0.878623,-0.163626 1.118247,0.245438c0.15975,0.327251 0.079875,0.818128 -0.239624,1.063566z"/>
 </g>
</svg>