<svg width="48" height="48" xmlns="http://www.w3.org/2000/svg">

 <g>
  <title>background</title>
  <rect fill="none" id="canvas_background" height="402" width="582" y="-1" x="-1"/>
 </g>
 <g>
  <title>Layer 1</title>
  <path stroke="null" fill="#e1dede" id="svg_2" d="m39.841042,38.594134l-31.789416,0c-1.422158,0 -2.509691,-1.131742 -2.509691,-2.611713l0,-24.375987c0,-1.479971 1.087533,-2.611713 2.509691,-2.611713l7.11079,0c1.171189,0 2.175065,0.783514 2.426034,2.002313l0.167313,0.870571c0.167313,0.435285 0.501938,0.696457 0.836564,0.696457l21.248715,0c1.422158,0 2.509691,1.131742 2.509691,2.611713l0,20.893703c0,1.392914 -1.087533,2.524656 -2.509691,2.524656zm-31.789416,-27.858271c-0.501938,0 -0.836564,0.348228 -0.836564,0.870571l0,24.375987c0,0.522343 0.334625,0.870571 0.836564,0.870571l31.789416,0c0.501938,0 0.836564,-0.348228 0.836564,-0.870571l0,-20.893703c0,-0.522343 -0.334625,-0.870571 -0.836564,-0.870571l-21.248715,0c-1.087533,0 -2.091409,-0.783514 -2.426034,-1.915256l0,-0.087057l-0.167313,-0.870571c-0.167313,-0.348228 -0.418282,-0.6094 -0.836564,-0.6094l-7.11079,0z"/>
  <rect stroke="null" id="svg_3" height="23.827566" width="34.238712" y="13.635815" x="7.041642" stroke-opacity="null" stroke-width="null" fill="#e1dede"/>
  <rect stroke="null" id="svg_4" height="5.151907" width="10.518476" y="10.523203" x="6.397652" stroke-opacity="null" stroke-width="null" fill="#e1dede"/>
 </g>
</svg>