<svg width="16" height="16" xmlns="http://www.w3.org/2000/svg">

 <g>
  <title>background</title>
  <rect fill="none" id="canvas_background" height="402" width="582" y="-1" x="-1"/>
 </g>
 <g>
  <title>Layer 1</title>
  <path stroke="null" fill="#e1dede" id="svg_1" d="m11.061738,6.134704c0.504077,0 0.912356,-0.399199 0.912356,-0.892064c0,-0.492866 -0.408279,-0.892064 -0.912356,-0.892064s-0.912356,0.399199 -0.912356,0.892064c0,0.064229 0.007755,0.126227 0.020528,0.186441l-3.897585,1.905895c-0.167417,-0.187333 -0.41056,-0.308208 -0.684723,-0.308208c-0.504077,0 -0.912356,0.399199 -0.912356,0.892064c0,0.492866 0.408279,0.892064 0.912356,0.892064c0.274163,0 0.517306,-0.120875 0.684723,-0.308208l3.898042,1.905449c-0.013229,0.06066 -0.020984,0.122659 -0.020984,0.186887c0,0.492866 0.408279,0.892064 0.912356,0.892064s0.912356,-0.399199 0.912356,-0.892064c0,-0.492866 -0.408279,-0.892064 -0.912356,-0.892064c-0.274163,0 -0.517306,0.120875 -0.684723,0.308208l-3.897585,-1.905895c0.012773,-0.060214 0.020528,-0.122213 0.020528,-0.186441c0,-0.064229 -0.007755,-0.126227 -0.020528,-0.186441l3.898042,-1.905449c0.166961,0.186887 0.410104,0.307762 0.684267,0.307762z"/>
 </g>
</svg>